<svg xmlns="http://www.w3.org/2000/svg" viewBox="0 0 380 440" width="100%" height="100%">
  <defs>
    <radialGradient id="bgGrad" cx="50%" cy="40%" r="65%">
      <stop offset="0%" stop-color="#2d124d" />
      <stop offset="60%" stop-color="#140f1f" />
      <stop offset="100%" stop-color="#09070e" />
    </radialGradient>
    <radialGradient id="faceSkin" cx="45%" cy="40%" r="60%">
      <stop offset="0%" stop-color="#EAC0A2" />
      <stop offset="60%" stop-color="#D5A080" />
      <stop offset="90%" stop-color="#B77B57" />
      <stop offset="100%" stop-color="#8A4E32" />
    </radialGradient>
    <filter id="pinShadow" x="-30%" y="-30%" width="160%" height="160%">
      <feDropShadow dx="0" dy="2" stdDeviation="2" flood-color="#000" flood-opacity="0.6"/>
    </filter>
    <marker id="arrowGold" viewBox="0 0 10 10" refX="6" refY="5" markerWidth="6" markerHeight="6" orient="auto-start-reverse">
      <path d="M 0 1.5 L 8 5 L 0 8.5 z" fill="#D4AF37" />
    </marker>
  </defs>

  
    <rect width="100%" height="100%" fill="url(#bgGrad)" />
    
    <!-- Geometric diamond facets (Top-Left corner) matching NG Piercing reference poster -->
    <g opacity="0.25">
      <rect x="-30" y="-30" width="90" height="90" rx="8" fill="#A855F7" transform="rotate(35 15 15)" />
      <rect x="25" y="-40" width="70" height="70" rx="8" fill="#7E22CE" transform="rotate(35 60 -5)" opacity="0.7" />
      <rect x="-20" y="45" width="60" height="60" rx="8" fill="#9333EA" transform="rotate(35 10 75)" opacity="0.5" />
      <rect x="50" y="25" width="45" height="45" rx="6" fill="#C084FC" transform="rotate(35 72 47)" opacity="0.4" />
    </g>

    <!-- Header Banner -->
    <g transform="translate(190, 42)" text-anchor="middle">
      <text fill="#FFFFFF" font-family="'Cinzel', Georgia, serif" font-size="14" font-weight="600" letter-spacing="3">LOCAIS PARA PERFURAÇÃO</text>
      <text y="18" fill="#D4AF37" font-family="'Cinzel', Georgia, serif" font-size="12" font-weight="500" letter-spacing="4">(FACIAL & NASAL)</text>
    </g>

    <!-- Watermark NG PIERCING STUDIO (Bottom) -->
    <g transform="translate(190, 420)" text-anchor="middle" opacity="0.18">
      <text fill="none" stroke="#A855F7" stroke-width="1" font-family="'Cinzel', Georgia, serif" font-size="20" font-weight="600" letter-spacing="4">NG PIERCING STUDIO</text>
      <text y="15" fill="#A855F7" font-family="'Cinzel', Georgia, serif" font-size="18" font-weight="600" letter-spacing="4">NG PIERCING STUDIO</text>
    </g>
  

  <!-- Silhueta Facial & Nariz (Sem joias) -->
  <g id="faceAnatomy" transform="translate(190, 220)">
    <!-- Base de Rosto Feminino Suave -->
    <ellipse cx="0" cy="-10" rx="100" ry="140" fill="url(#faceSkin)" opacity="0.3" filter="blur(16px)" />

    <!-- Sobrancelha Esquerda & Direita -->
    <path d="M -65 -85 C -45 -100, -20 -95, -5 -80" fill="none" stroke="#5E2F1B" stroke-width="3.5" stroke-linecap="round" />
    <path d="M 5 -80 C 20 -95, 45 -100, 65 -85" fill="none" stroke="#5E2F1B" stroke-width="3.5" stroke-linecap="round" />

    <!-- Olhos Esboçados Delicados -->
    <path d="M -60 -65 C -45 -75, -25 -75, -15 -65 C -25 -58, -45 -58, -60 -65 Z" fill="#3D1A10" opacity="0.6" />
    <path d="M 15 -65 C 25 -75, 45 -75, 60 -65 C 45 -58, 25 -58, 15 -65 Z" fill="#3D1A10" opacity="0.6" />

    <!-- Ponte Nasal & Dorso do Nariz -->
    <path d="M 0 -70 L -4 -10 C -5 10, -20 25, -22 30 C -15 38, 15 38, 22 30 C 20 25, 5 10, 4 -10 L 0 -70" 
          fill="none" stroke="#87472A" stroke-width="1.8" opacity="0.5" stroke-linejoin="round" />

    <!-- Abas Nasais & Ponta -->
    <path d="M -22 30 C -30 25, -35 15, -28 5 C -22 5, -18 15, -12 25" fill="none" stroke="#7A391E" stroke-width="2" stroke-linecap="round" />
    <path d="M 22 30 C 30 25, 35 15, 28 5 C 22 5, 18 15, 12 25" fill="none" stroke="#7A391E" stroke-width="2" stroke-linecap="round" />

    <!-- Narinas & Columela Septal -->
    <ellipse cx="-10" cy="30" rx="4.5" ry="3" fill="#3A150A" transform="rotate(-15 -10 30)" />
    <ellipse cx="10" cy="30" rx="4.5" ry="3" fill="#3A150A" transform="rotate(15 10 30)" />
    <path d="M -5 32 C 0 35, 0 35, 5 32" fill="none" stroke="#7A391E" stroke-width="2" stroke-linecap="round" />

    <!-- Lábios sutis para proporção facial -->
    <path d="M -30 65 C -15 60, 15 60, 30 65 C 15 78, -15 78, -30 65 Z" fill="#C57585" opacity="0.5" />
  </g>

  <!-- PONTOS NUMERADOS COM SETAS -->

  <!-- 3 - SOBRANCELHA -->
  <g class="map-pin-item" onclick="filtrarPontoAnatomico('faciais', 'sobrancelha')">
    <path d="M 245 130 L 290 120" stroke="#D4AF37" stroke-width="1.2" marker-start="url(#arrowGold)" />
    <circle cx="245" cy="130" r="10" fill="#7E22CE" stroke="#D4AF37" stroke-width="1.2" filter="url(#pinShadow)"/>
    <text x="245" y="134" fill="#FFF" font-family="'Montserrat', sans-serif" font-size="10" font-weight="700" text-anchor="middle">3</text>
    <text x="298" y="123" fill="#FFF" font-family="'Cinzel', serif" font-size="9.5" letter-spacing="1">SOBRANCELHA</text>
  </g>

  <!-- 4 - BRIDGE (Ponte entre os olhos) -->
  <g class="map-pin-item" onclick="filtrarPontoAnatomico('faciais', 'bridge')">
    <path d="M 190 155 L 120 145" stroke="#D4AF37" stroke-width="1.2" marker-start="url(#arrowGold)" />
    <circle cx="190" cy="155" r="10" fill="#7E22CE" stroke="#D4AF37" stroke-width="1.2" filter="url(#pinShadow)"/>
    <text x="190" y="159" fill="#FFF" font-family="'Montserrat', sans-serif" font-size="10" font-weight="700" text-anchor="middle">4</text>
    <text x="112" y="148" fill="#FFF" font-family="'Cinzel', serif" font-size="9.5" letter-spacing="1" text-anchor="end">BRIDGE</text>
  </g>

  <!-- 1 - ABA NASAL (NOSTRIL) -->
  <g class="map-pin-item" onclick="filtrarPontoAnatomico('nariz', 'aba-nasal')">
    <path d="M 218 245 L 275 235" stroke="#D4AF37" stroke-width="1.2" marker-start="url(#arrowGold)" />
    <circle cx="218" cy="245" r="10" fill="#7E22CE" stroke="#D4AF37" stroke-width="1.2" filter="url(#pinShadow)"/>
    <text x="218" y="249" fill="#FFF" font-family="'Montserrat', sans-serif" font-size="10" font-weight="700" text-anchor="middle">1</text>
    <text x="282" y="238" fill="#FFF" font-family="'Cinzel', serif" font-size="9.5" letter-spacing="1">ABA NASAL</text>
  </g>

  <!-- 2 - SEPTO -->
  <g class="map-pin-item" onclick="filtrarPontoAnatomico('nariz', 'septo')">
    <path d="M 190 262 L 125 270" stroke="#D4AF37" stroke-width="1.2" marker-start="url(#arrowGold)" />
    <circle cx="190" cy="262" r="10" fill="#7E22CE" stroke="#D4AF37" stroke-width="1.2" filter="url(#pinShadow)"/>
    <text x="190" y="266" fill="#FFF" font-family="'Montserrat', sans-serif" font-size="10" font-weight="700" text-anchor="middle">2</text>
    <text x="118" y="273" fill="#FFF" font-family="'Cinzel', serif" font-size="9.5" letter-spacing="1" text-anchor="end">SEPTO</text>
  </g>

  <!-- 5 - MICRODERMAL -->
  <g class="map-pin-item" onclick="filtrarPontoAnatomico('faciais', 'microdermal')">
    <path d="M 275 200 L 320 200" stroke="#D4AF37" stroke-width="1.2" marker-start="url(#arrowGold)" />
    <circle cx="275" cy="200" r="10" fill="#7E22CE" stroke="#D4AF37" stroke-width="1.2" filter="url(#pinShadow)"/>
    <text x="275" y="204" fill="#FFF" font-family="'Montserrat', sans-serif" font-size="10" font-weight="700" text-anchor="middle">5</text>
    <text x="328" y="203" fill="#FFF" font-family="'Cinzel', serif" font-size="9.5" letter-spacing="1">MICRODERMAL</text>
  </g>

  <!-- 6 - SURFACE -->
  <g class="map-pin-item" onclick="filtrarPontoAnatomico('faciais', 'surface')">
    <path d="M 105 195 L 60 195" stroke="#D4AF37" stroke-width="1.2" marker-start="url(#arrowGold)" />
    <circle cx="105" cy="195" r="10" fill="#7E22CE" stroke="#D4AF37" stroke-width="1.2" filter="url(#pinShadow)"/>
    <text x="105" y="199" fill="#FFF" font-family="'Montserrat', sans-serif" font-size="10" font-weight="700" text-anchor="middle">6</text>
    <text x="52" y="198" fill="#FFF" font-family="'Cinzel', serif" font-size="9.5" letter-spacing="1" text-anchor="end">SURFACE</text>
  </g>

</svg>